<svg width="13" height="12" viewBox="0 0 13 12" fill="none" xmlns="http://www.w3.org/2000/svg">
<path d="M12.6062 5.39604L0.97539 0.0632852C0.858272 0.00959123 0.727924 -0.0106315 0.599483 0.00496543C0.471041 0.0205624 0.349775 0.071339 0.249767 0.151399C0.149759 0.231459 0.0751119 0.337517 0.0344939 0.457259C-0.00612413 0.577 -0.0110466 0.705511 0.0202983 0.827869L0.849504 4.06018L6.15724 5.99931L0.849504 7.93843L0.0202983 11.1707C-0.0116364 11.2932 -0.00712472 11.422 0.0333054 11.542C0.0737356 11.6621 0.148413 11.7684 0.248601 11.8486C0.34879 11.9288 0.470347 11.9796 0.599054 11.9949C0.727761 12.0103 0.858296 11.9896 0.97539 11.9353L12.6062 6.60258C12.7237 6.54874 12.8231 6.46343 12.8927 6.3566C12.9623 6.24977 12.9993 6.12585 12.9993 5.99931C12.9993 5.87277 12.9623 5.74884 12.8927 5.64201C12.8231 5.53519 12.7237 5.44987 12.6062 5.39604Z" fill="#E9EEF2"/>
</svg>
